<svg width="34" height="34" viewBox="0 0 34 34" fill="none" xmlns="http://www.w3.org/2000/svg">
<path d="M8.5 22.6445C10.5807 25.6992 13.4141 27.2266 17 27.2266C20.5859 27.2266 23.4193 25.6992 25.5 22.6445C25.4557 21.4049 24.4596 20.3646 22.5117 19.5234C20.5638 18.6823 18.7266 18.2617 17 18.2617C15.2734 18.2617 13.4362 18.6823 11.4883 19.5234C9.54036 20.3203 8.54427 21.3607 8.5 22.6445ZM19.9883 8.36719C19.1471 7.52604 18.151 7.10547 17 7.10547C15.849 7.10547 14.8529 7.52604 14.0117 8.36719C13.1706 9.20833 12.75 10.2044 12.75 11.3555C12.75 12.5065 13.1706 13.5026 14.0117 14.3438C14.8529 15.1849 15.849 15.6055 17 15.6055C18.151 15.6055 19.1471 15.1849 19.9883 14.3438C20.8294 13.5026 21.25 12.5065 21.25 11.3555C21.25 10.2044 20.8294 9.20833 19.9883 8.36719ZM6.97266 7.03906C9.76172 4.25 13.1042 2.85547 17 2.85547C20.8958 2.85547 24.2161 4.25 26.9609 7.03906C29.75 9.78385 31.1445 13.1042 31.1445 17C31.1445 20.8958 29.75 24.2383 26.9609 27.0273C24.2161 29.7721 20.8958 31.1445 17 31.1445C13.1042 31.1445 9.76172 29.7721 6.97266 27.0273C4.22786 24.2383 2.85547 20.8958 2.85547 17C2.85547 13.1042 4.22786 9.78385 6.97266 7.03906Z" fill="#666666"/>
</svg>
