<svg width="24" height="31" viewBox="0 0 24 31" fill="none" xmlns="http://www.w3.org/2000/svg">
<g id="input_24px">
<path id="icon/action/input_24px" fill-rule="evenodd" clip-rule="evenodd" d="M3 3.88794H21C22.1 3.88794 23 5.05044 23 6.47127V24.5288C23 25.9496 22.1 27.1121 21 27.1121H2.98C1.89 27.1121 1 25.9625 1 24.5546V20.6667C1 19.9563 1.45 19.375 2 19.375C2.55 19.375 3 19.9563 3 20.6667V23.2759C3 23.9863 3.45 24.5675 4 24.5675H20C20.55 24.5675 21 23.9863 21 23.2759V7.73711C21 7.02669 20.55 6.44544 20 6.44544H4C3.45 6.44544 3 7.02669 3 7.73711V10.3334C3 11.0438 2.55 11.625 2 11.625C1.45 11.625 1 11.0438 1 10.3334V6.47127C1 5.05044 1.9 3.88794 3 3.88794ZM14.64 15.965L11.85 19.5688C11.54 19.9692 11 19.685 11 19.1038V16.7917H2C1.45 16.7917 1 16.2104 1 15.5C1 14.7896 1.45 14.2084 2 14.2084H11V11.8963C11 11.315 11.54 11.0309 11.85 11.4442L14.64 15.0479C14.84 15.3063 14.84 15.7067 14.64 15.965Z" fill="#3D85C6"/>
</g>
</svg>
