<!DOCTYPE svg PUBLIC "-//W3C//DTD SVG 20010904//EN" "http://www.w3.org/TR/2001/REC-SVG-20010904/DTD/svg10.dtd">
<svg version="1.0" xmlns="http://www.w3.org/2000/svg" width="1000px" height="1000px" viewBox="0 0 10000 10000" preserveAspectRatio="xMidYMid meet">
<g id="layer101" fill="#00b900" stroke="none">
 <path d="M4800 9994 c-454 -32 -679 -64 -1008 -145 -1253 -308 -2352 -1109 -3042 -2219 -414 -667 -656 -1402 -731 -2220 -26 -285 -15 -736 27 -1065 228 -1788 1443 -3339 3134 -4000 586 -229 1175 -339 1820 -339 441 0 790 42 1208 145 1560 383 2859 1524 3447 3029 228 584 338 1174 339 1815 0 433 -43 789 -144 1200 -371 1506 -1423 2754 -2847 3381 -503 222 -1031 354 -1608 404 -131 11 -507 20 -595 14z"/>
 </g>
<g id="layer102" fill="#ffffff" stroke="none">
 <path d="M4765 8331 c-70 -29 -77 -89 -34 -331 41 -233 46 -411 14 -475 -25 -49 -86 -96 -162 -125 -32 -12 -146 -38 -253 -56 -651 -114 -1201 -351 -1660 -714 -146 -115 -398 -372 -502 -510 -194 -261 -330 -530 -408 -808 -152 -538 -99 -1100 150 -1607 376 -765 1166 -1354 2130 -1589 341 -83 578 -110 960 -110 382 0 619 27 960 110 1091 266 1957 990 2249 1879 82 251 114 446 114 705 0 846 -445 1551 -1517 2405 -407 323 -922 680 -1381 954 -394 236 -570 308 -660 272z m-955 -2798 c20 -26 21 -37 18 -166 -3 -124 -5 -140 -22 -153 -16 -11 -81 -14 -348 -14 l-328 0 0 -584 c0 -575 0 -584 -21 -610 -20 -26 -21 -26 -159 -26 -121 0 -141 2 -161 19 l-24 19 0 752 0 752 24 19 c22 18 46 19 511 19 l489 0 21 -27z m557 5 l23 -21 0 -749 c0 -735 0 -748 -20 -768 -18 -18 -33 -20 -158 -20 -108 0 -142 3 -160 16 l-22 15 0 759 0 759 22 15 c18 13 51 16 157 16 125 0 136 -2 158 -22z m591 -1 c22 -23 22 -28 24 -459 l3 -435 310 419 c171 231 325 437 343 459 l34 39 138 0 c121 0 141 -2 161 -19 l24 -19 0 -752 0 -752 -24 -19 c-20 -17 -40 -19 -161 -19 -126 0 -138 2 -156 21 -18 20 -19 46 -24 458 l-5 438 -310 -420 c-170 -230 -325 -437 -343 -458 l-34 -39 -137 0 c-107 0 -141 3 -159 16 l-22 15 0 759 0 759 22 15 c18 13 52 16 158 16 130 0 138 -1 158 -23z m2300 7 c21 -14 22 -22 22 -161 0 -122 -3 -149 -17 -165 -15 -17 -39 -18 -345 -18 l-328 0 0 -125 0 -125 327 0 c290 0 328 -2 345 -17 16 -14 18 -33 18 -161 0 -121 -3 -148 -17 -164 -15 -17 -39 -18 -345 -18 l-328 0 0 -125 0 -125 327 0 c290 0 328 -2 345 -17 16 -14 18 -33 18 -164 0 -141 -1 -149 -22 -163 -20 -14 -85 -16 -507 -16 -484 0 -485 0 -508 22 l-23 21 0 746 0 745 22 23 21 23 487 0 c423 0 488 -2 508 -16z"/>
 </g>

</svg>